<mxfile host="app.diagrams.net" modified="2024-03-12T18:57:21.368Z" agent="Mozilla/5.0 (Macintosh; Intel Mac OS X 10.15; rv:123.0) Gecko/20100101 Firefox/123.0" version="24.0.5" etag="bbHP6QzxsZgLWQ8Y-VQT" type="github">
  <diagram name="Page-1" id="auBJcg3qMlj52MuuG0di">
    <mxGraphModel>
      <root>
        <mxCell id="0" />
        <mxCell id="1" parent="0" />
      </root>
    </mxGraphModel>
  </diagram>
</mxfile>
